<?xml version="1.0" standalone="no"?>
<!DOCTYPE svg PUBLIC "-//W3C//DTD SVG 20010904//EN"
 "http://www.w3.org/TR/2001/REC-SVG-20010904/DTD/svg10.dtd">
<svg version="1.0" xmlns="http://www.w3.org/2000/svg"
 width="500.000000pt" height="500.000000pt" viewBox="0 0 500.000000 500.000000"
 preserveAspectRatio="xMidYMid meet">

<g transform="translate(0.000000,500.000000) scale(0.100000,-0.100000)"
fill="#000000" stroke="none">
<path d="M0 2500 l0 -2500 2500 0 2500 0 0 2500 0 2500 -2500 0 -2500 0 0
-2500z m2775 2295 c71 -9 158 -23 193 -31 34 -8 67 -12 72 -9 6 3 20 -1 32 -9
12 -9 32 -16 43 -16 19 0 89 -21 130 -39 11 -5 29 -12 40 -15 41 -10 96 -33
107 -44 7 -7 18 -12 25 -12 7 0 46 -16 87 -35 41 -19 78 -35 81 -35 5 0 18
-10 48 -36 7 -6 33 -21 57 -33 63 -30 151 -88 170 -112 3 -4 23 -19 46 -35 85
-60 122 -91 214 -185 133 -135 160 -165 160 -176 0 -5 12 -20 26 -34 23 -21
42 -46 89 -117 6 -8 18 -23 27 -33 10 -10 29 -40 43 -66 14 -26 39 -70 56 -98
16 -27 32 -57 35 -65 3 -8 10 -22 15 -30 5 -8 14 -26 19 -40 6 -14 17 -37 25
-52 8 -14 15 -35 15 -46 0 -11 7 -25 15 -32 8 -7 15 -19 15 -27 0 -8 6 -29 13
-46 24 -56 39 -101 43 -131 2 -16 8 -34 13 -40 8 -10 16 -47 27 -119 2 -16 7
-33 10 -38 32 -53 46 -617 18 -784 -9 -55 -18 -111 -20 -125 -14 -90 -25 -135
-34 -144 -5 -5 -10 -22 -10 -37 0 -15 -4 -30 -9 -34 -5 -3 -9 -19 -9 -35 1
-16 -5 -36 -12 -45 -12 -15 -47 -104 -71 -185 -6 -19 -16 -42 -23 -50 -7 -8
-32 -55 -56 -105 -24 -49 -48 -91 -52 -93 -4 -2 -8 -9 -8 -16 0 -7 -9 -21 -20
-31 -11 -10 -20 -24 -20 -31 0 -7 -11 -26 -25 -41 -32 -37 -37 -43 -58 -81
-10 -18 -28 -43 -40 -56 -47 -49 -77 -84 -77 -89 0 -8 -175 -181 -230 -227
-30 -25 -64 -55 -77 -67 -12 -12 -37 -30 -55 -40 -38 -21 -44 -26 -81 -58 -15
-14 -34 -25 -41 -25 -7 0 -21 -9 -31 -20 -10 -11 -24 -20 -31 -20 -7 0 -14 -4
-16 -8 -1 -5 -47 -30 -101 -56 -53 -27 -100 -52 -103 -57 -3 -5 -15 -9 -27 -9
-13 0 -31 -6 -42 -14 -11 -7 -57 -26 -103 -41 -45 -15 -85 -31 -87 -36 -3 -4
-14 -5 -24 -2 -10 3 -22 0 -25 -6 -4 -6 -20 -11 -35 -11 -15 0 -32 -5 -37 -10
-9 -9 -45 -18 -144 -34 -14 -3 -52 -9 -85 -15 -179 -32 -520 -37 -675 -9 -30
5 -72 11 -92 13 -21 2 -47 7 -59 10 -24 8 -46 12 -104 21 -22 4 -45 10 -50 15
-6 4 -22 10 -37 13 -14 2 -35 9 -46 15 -12 6 -29 11 -40 11 -11 0 -33 7 -48
15 -16 8 -36 15 -45 15 -9 0 -22 7 -30 16 -7 8 -21 13 -30 11 -10 -3 -23 1
-30 9 -6 8 -29 19 -50 26 -22 6 -44 17 -50 25 -6 7 -18 13 -26 13 -7 0 -25 7
-39 17 -27 17 -52 32 -133 76 -29 15 -60 35 -70 45 -10 9 -25 22 -33 27 -71
47 -96 66 -117 89 -14 14 -29 26 -34 26 -19 0 -263 242 -322 320 -22 29 -46
58 -53 65 -6 8 -12 18 -12 24 0 6 -3 11 -7 11 -14 1 -123 165 -123 184 0 11
-9 25 -50 73 -5 7 -10 15 -10 18 0 3 -16 40 -35 81 -19 41 -35 80 -35 87 0 7
-5 18 -12 25 -11 11 -33 64 -45 107 -3 11 -11 34 -19 52 -8 17 -14 39 -14 50
0 23 -28 104 -42 120 -5 7 -7 17 -3 22 3 6 -1 39 -9 73 -21 88 -36 218 -46
392 -11 200 9 392 70 656 14 62 47 167 60 191 7 13 15 37 17 53 1 16 10 37 18
46 8 9 15 26 15 37 0 11 7 26 15 33 8 7 15 21 15 31 0 10 4 20 9 23 5 3 21 36
37 73 16 38 37 77 46 87 10 11 21 29 24 40 4 12 14 28 23 36 9 8 28 37 41 63
14 27 36 61 50 75 13 15 40 47 59 72 37 49 39 51 110 129 87 95 169 172 248
232 32 24 70 55 84 69 15 14 48 36 75 50 27 13 56 32 64 41 8 9 24 19 36 23
11 3 29 15 40 25 11 10 47 28 79 40 60 23 108 47 135 67 8 7 34 17 57 23 23 7
45 16 48 21 4 6 10 8 15 5 5 -3 24 2 42 11 30 16 191 62 293 85 36 8 186 32
260 42 81 11 382 6 500 -8z"/>
<path d="M2276 4380 c-416 -52 -794 -233 -1094 -524 -652 -633 -761 -1639
-259 -2399 78 -117 204 -267 298 -351 128 -117 343 -260 475 -317 27 -12 67
-29 89 -39 53 -24 218 -77 280 -90 594 -131 1196 13 1650 394 336 282 567 681
646 1116 29 165 33 473 7 625 -141 816 -737 1420 -1550 1571 -97 18 -439 27
-542 14z m952 -1375 c3 -397 0 -451 -18 -440 -6 4 -10 160 -10 411 l0 404
-697 -2 -698 -3 -3 -395 c-1 -217 -5 -402 -8 -410 -4 -13 -6 -13 -14 0 -14 21
-11 811 2 828 8 9 161 12 727 10 l716 -3 3 -400z m-95 310 c23 -22 20 -741 -3
-755 -19 -13 -1240 -12 -1260 0 -23 14 -22 746 0 760 9 6 269 10 632 10 535 0
618 -2 631 -15z m-435 -832 c2 -15 -11 -37 -39 -68 l-42 -45 288 0 c319 0 340
4 369 63 l15 32 -280 5 c-176 3 -279 9 -279 15 0 6 105 11 290 13 250 2 291 0
296 -13 10 -24 -33 -99 -68 -120 -32 -19 -53 -20 -743 -20 -564 0 -716 3 -741
13 -39 17 -71 58 -79 106 l-7 36 291 -2 c183 -2 292 -7 294 -13 1 -6 -97 -11
-275 -13 -153 -1 -278 -5 -278 -8 0 -3 8 -19 17 -35 33 -56 53 -59 368 -59
l287 0 -36 37 c-42 44 -52 68 -35 89 10 12 44 14 198 12 183 -3 186 -3 189
-25z m-632 -403 l30 0 -9 -72 c-4 -40 -7 -101 -5 -135 4 -58 2 -63 -17 -63
-19 0 -20 4 -15 120 5 131 5 140 -14 140 -27 0 -46 -37 -52 -101 -7 -78 -24
-159 -33 -159 -11 0 16 222 30 253 10 20 19 26 34 22 11 -2 34 -5 51 -5z m206
-28 c7 -26 -16 -78 -41 -94 -24 -15 -27 -28 -8 -28 18 0 37 -43 37 -80 0 -17
9 -39 20 -50 14 -14 16 -20 7 -20 -24 0 -46 34 -57 87 -9 38 -17 54 -32 59
-19 6 -19 7 -5 16 42 23 65 128 30 128 -15 0 -15 2 -4 9 19 12 47 -2 53 -27z
m188 27 c0 -5 -4 -9 -10 -9 -5 0 -23 -23 -39 -52 -29 -50 -29 -51 -10 -67 13
-11 21 -34 25 -71 8 -76 22 -118 42 -123 14 -4 15 -5 1 -6 -34 -2 -52 36 -83
172 -4 15 -10 27 -15 27 -16 0 -42 -75 -36 -108 5 -28 3 -32 -17 -32 -22 0
-23 2 -17 77 3 43 5 104 5 136 -1 57 -1 57 29 57 20 0 26 -3 17 -9 -9 -5 -12
-27 -10 -70 l3 -62 34 58 c19 32 34 64 34 73 -1 9 8 16 23 16 13 1 24 -2 24
-7z m151 1 c27 0 27 -1 18 -29 -6 -16 -9 -77 -7 -135 3 -102 2 -106 -18 -106
-19 0 -21 4 -16 50 l5 50 -42 0 c-40 0 -41 -1 -41 -33 0 -18 -7 -42 -15 -53
-14 -18 -15 -16 -10 21 2 22 7 69 10 105 4 35 12 79 20 96 7 18 10 36 7 40 -4
4 8 4 27 0 18 -3 46 -6 62 -6z m145 -2 c3 -4 2 -13 -3 -22 -7 -12 -10 -11 -19
9 -9 18 -8 22 2 21 7 -1 16 -5 20 -8z m76 0 c-8 -8 -12 -54 -12 -140 0 -115
-2 -128 -17 -128 -16 0 -18 12 -15 140 l3 140 27 0 c20 0 23 -3 14 -12z
m-1024 -75 c22 -143 27 -149 41 -53 18 123 20 130 45 130 20 0 21 -4 21 -135
0 -122 -2 -135 -17 -135 -16 0 -18 12 -19 103 l-2 102 -14 -80 c-22 -122 -22
-125 -37 -125 -15 0 -18 9 -38 135 -12 77 -13 78 -20 40 -4 -22 -7 -70 -7
-107 -1 -38 -4 -68 -9 -68 -4 0 -4 48 1 108 4 59 6 119 4 135 -3 22 0 27 18
27 19 0 23 -9 33 -77z m373 63 c-8 -10 -11 -53 -9 -135 3 -115 2 -121 -17
-121 -19 0 -20 6 -17 126 3 98 1 129 -10 135 -8 6 1 9 26 9 32 0 37 -2 27 -14z
m507 -6 c-11 -17 -7 -29 24 -87 19 -38 39 -81 42 -97 9 -38 -16 -66 -61 -66
-34 0 -39 9 -23 45 8 18 9 17 9 -7 1 -23 6 -28 25 -28 43 0 41 33 -3 114 -23
40 -41 81 -41 90 0 23 18 56 30 56 6 0 5 -9 -2 -20z m215 -7 c-23 -35 -26
-200 -4 -226 8 -11 9 -17 2 -17 -28 0 -46 54 -46 135 1 83 20 135 51 135 12 0
11 -6 -3 -27z m61 5 c39 -63 18 -233 -31 -252 -11 -4 -10 0 2 24 19 37 21 220
3 238 -9 9 -9 12 0 12 6 0 18 -10 26 -22z m136 -85 l55 -108 5 95 c3 52 2 101
-3 108 -7 8 -4 12 10 12 18 0 19 -5 12 -52 -4 -29 -8 -90 -8 -135 -1 -64 -4
-83 -15 -83 -8 0 -38 46 -68 103 -50 97 -53 100 -56 68 -2 -19 -2 -65 0 -103
3 -60 1 -68 -15 -68 -14 0 -16 4 -7 19 14 28 13 224 -2 239 -9 9 -7 12 13 12
21 0 32 -15 79 -107z m-1067 -60 c-7 -2 -21 -2 -30 0 -10 3 -4 5 12 5 17 0 24
-2 18 -5z m190 -359 c-5 -13 -23 -20 -23 -10 0 2 -3 11 -6 19 -4 12 0 14 15
10 12 -3 17 -11 14 -19z m486 -3 c12 -24 -6 -77 -34 -99 -29 -23 -31 -32 -10
-32 18 0 35 -39 35 -81 0 -16 9 -38 20 -49 14 -14 16 -20 7 -20 -24 0 -46 34
-57 87 -8 35 -17 54 -29 58 -17 5 -15 9 10 36 33 36 42 109 13 109 -8 0 -13 4
-10 9 9 13 45 1 55 -18z m171 13 c0 -13 -3 -14 -14 -5 -8 7 -30 11 -48 9 l-33
-3 0 -125 0 -125 32 -3 c23 -2 35 3 48 20 l16 23 -3 -25 c-3 -23 -7 -25 -68
-28 l-65 -3 3 126 c3 88 0 130 -8 140 -11 13 -2 15 64 15 63 0 76 -3 76 -16z
m-730 -9 c-11 -13 -6 -31 30 -107 41 -85 43 -92 29 -117 -19 -33 -89 -44 -89
-14 0 10 5 25 10 33 8 12 10 9 10 -12 0 -23 4 -28 25 -28 42 0 41 27 -4 114
-23 44 -41 87 -41 94 0 20 19 52 32 52 7 0 6 -5 -2 -15z m260 1 c0 -8 -4 -18
-10 -21 -5 -3 -10 1 -10 9 0 11 -9 16 -30 16 l-30 0 0 -124 c0 -90 3 -126 13
-129 6 -3 -6 -5 -28 -5 -22 0 -34 2 -27 5 9 3 12 39 12 129 0 120 -1 124 -21
124 -12 0 -28 -8 -35 -17 -12 -16 -13 -16 -14 -2 0 26 10 29 97 29 66 0 83 -3
83 -14z m55 -16 c-21 -41 -21 -187 1 -218 14 -20 14 -22 -1 -22 -44 0 -63 176
-25 238 25 40 46 43 25 2z m72 -7 c28 -68 4 -218 -37 -231 -13 -5 -13 -3 0 12
21 26 21 233 0 246 -13 8 -12 10 3 10 11 0 24 -14 34 -37z m85 28 c-10 -6 -12
-38 -10 -134 l3 -127 -29 0 c-23 0 -27 3 -18 12 17 17 17 244 0 251 -7 3 5 6
27 6 25 0 35 -2 27 -8z"/>
<path d="M1929 3268 c-18 -7 -19 -20 -19 -327 0 -245 3 -322 13 -328 6 -4 266
-9 577 -9 497 -2 567 0 583 14 15 14 17 42 17 321 0 168 -4 312 -8 319 -7 10
-131 13 -576 15 -312 1 -576 -1 -587 -5z m385 -220 l40 -138 141 0 140 0 22
62 c13 34 22 63 20 64 -1 2 -74 4 -161 6 -116 2 -160 6 -164 16 -3 9 38 12
182 12 142 0 186 -3 186 -12 -1 -7 -16 -49 -34 -93 l-32 -80 -147 -3 -146 -3
9 -24 c6 -15 6 -27 0 -30 -10 -6 -23 15 -38 65 -86 283 -80 270 -112 270 -29
0 -45 12 -33 24 4 4 25 6 47 4 l39 -3 41 -137z m90 -291 c22 -16 18 -65 -6
-81 -28 -17 -72 4 -76 37 -6 50 40 75 82 44z m282 -12 c15 -23 15 -27 0 -51
-23 -33 -64 -30 -85 8 -14 24 -14 28 3 47 26 29 62 27 82 -4z"/>
<path d="M2350 2720 c0 -13 7 -20 20 -20 13 0 20 7 20 20 0 13 -7 20 -20 20
-13 0 -20 -7 -20 -20z"/>
<path d="M2625 2730 c-4 -7 -3 -16 3 -22 14 -14 45 -2 40 15 -6 16 -34 21 -43
7z"/>
<path d="M2553 2062 c-18 -11 -33 -58 -33 -103 0 -38 1 -39 35 -39 l35 0 0 75
c0 75 -6 87 -37 67z"/>
</g>
</svg>
