<svg xmlns="http://www.w3.org/2000/svg" xmlns:xlink="http://www.w3.org/1999/xlink" width="500" zoomAndPan="magnify" viewBox="0 0 375 374.999991" height="500" preserveAspectRatio="xMidYMid meet" version="1.0"><defs><g/><clipPath id="e9db958673"><path d="M 276 110 L 281.683594 110 L 281.683594 265 L 276 265 Z M 276 110 " clip-rule="nonzero"/></clipPath><clipPath id="235edcad44"><path d="M 93.433594 110 L 100 110 L 100 265 L 93.433594 265 Z M 93.433594 110 " clip-rule="nonzero"/></clipPath><clipPath id="835783a452"><path d="M 110 93.433594 L 265 93.433594 L 265 100 L 110 100 Z M 110 93.433594 " clip-rule="nonzero"/></clipPath><clipPath id="6440697b43"><path d="M 110 276 L 265 276 L 265 281.683594 L 110 281.683594 Z M 110 276 " clip-rule="nonzero"/></clipPath><clipPath id="08683aaf30"><path d="M 264 93.433594 L 281.683594 93.433594 L 281.683594 111 L 264 111 Z M 264 93.433594 " clip-rule="nonzero"/></clipPath><clipPath id="7d1a540cc4"><path d="M 93.433594 93.433594 L 111 93.433594 L 111 111 L 93.433594 111 Z M 93.433594 93.433594 " clip-rule="nonzero"/></clipPath><clipPath id="b51eff5e3c"><path d="M 264 264 L 281.683594 264 L 281.683594 281.683594 L 264 281.683594 Z M 264 264 " clip-rule="nonzero"/></clipPath><clipPath id="f4a66ff9fb"><path d="M 93.433594 264 L 111 264 L 111 281.683594 L 93.433594 281.683594 Z M 93.433594 264 " clip-rule="nonzero"/></clipPath></defs><g clip-path="url(#e9db958673)"><path fill="#000000" d="M 276.058594 110.683594 L 281.683594 110.683594 L 281.683594 264.433594 L 276.058594 264.433594 Z M 276.058594 110.683594 " fill-opacity="1" fill-rule="nonzero"/></g><g clip-path="url(#235edcad44)"><path fill="#000000" d="M 93.433594 110.683594 L 99.058594 110.683594 L 99.058594 264.433594 L 93.433594 264.433594 Z M 93.433594 110.683594 " fill-opacity="1" fill-rule="nonzero"/></g><g clip-path="url(#835783a452)"><path fill="#000000" d="M 110.683594 93.433594 L 264.433594 93.433594 L 264.433594 99.058594 L 110.683594 99.058594 Z M 110.683594 93.433594 " fill-opacity="1" fill-rule="nonzero"/></g><g clip-path="url(#6440697b43)"><path fill="#000000" d="M 110.683594 276.058594 L 264.433594 276.058594 L 264.433594 281.683594 L 110.683594 281.683594 Z M 110.683594 276.058594 " fill-opacity="1" fill-rule="nonzero"/></g><g clip-path="url(#08683aaf30)"><path fill="#000000" d="M 276.058594 99.058594 L 276.058594 110.683594 L 281.683594 110.683594 L 281.683594 93.433594 L 264.433594 93.433594 L 264.433594 99.058594 Z M 276.058594 99.058594 " fill-opacity="1" fill-rule="nonzero"/></g><g clip-path="url(#7d1a540cc4)"><path fill="#000000" d="M 99.058594 99.058594 L 110.683594 99.058594 L 110.683594 93.433594 L 93.433594 93.433594 L 93.433594 110.683594 L 99.058594 110.683594 Z M 99.058594 99.058594 " fill-opacity="1" fill-rule="nonzero"/></g><g clip-path="url(#b51eff5e3c)"><path fill="#000000" d="M 276.058594 276.058594 L 264.433594 276.058594 L 264.433594 281.683594 L 281.683594 281.683594 L 281.683594 264.433594 L 276.058594 264.433594 Z M 276.058594 276.058594 " fill-opacity="1" fill-rule="nonzero"/></g><g clip-path="url(#f4a66ff9fb)"><path fill="#000000" d="M 99.058594 276.058594 L 99.058594 264.433594 L 93.433594 264.433594 L 93.433594 281.683594 L 110.683594 281.683594 L 110.683594 276.058594 Z M 99.058594 276.058594 " fill-opacity="1" fill-rule="nonzero"/></g><g fill="#000000" fill-opacity="1"><g transform="translate(123.697182, 231.749985)"><g><path d="M 86.9375 -40.859375 L 91.8125 -50.0625 L 91.8125 0 L 86.9375 0 Z M 96.6875 -59.53125 L 101.546875 -68.734375 L 101.546875 0 L 96.6875 0 Z M 106.421875 -77.9375 L 111.296875 -87.203125 L 111.296875 0 L 106.421875 0 Z M 73.75 -43.171875 L 70.96875 -48.234375 L 104.53125 -112.046875 L 110.015625 -112.046875 Z M 68.125 -53.78125 L 65.296875 -58.921875 L 93.4375 -112.046875 L 98.984375 -112.046875 Z M 35.515625 -49.53125 L 40.390625 -40.328125 L 40.390625 0 L 35.515625 0 Z M 25.78125 -68.0625 L 30.65625 -58.859375 L 30.65625 0 L 25.78125 0 Z M 16.03125 -86.609375 L 20.90625 -77.328125 L 20.90625 0 L 16.03125 0 Z M 55.40625 -29.234375 L 49.9375 -29.234375 L 11.15625 -102.765625 L 11.15625 0 L 6.296875 0 L 6.296875 -112.046875 L 11.765625 -112.046875 Z M 66.4375 -29.234375 L 60.890625 -29.234375 L 17.328125 -112.046875 L 22.875 -112.046875 Z M 116.171875 -102.765625 L 77.40625 -29.234375 L 71.859375 -29.234375 L 28.34375 -112.046875 L 33.828125 -112.046875 L 74.6875 -34.375 L 115.484375 -112.046875 L 121.046875 -112.046875 L 121.046875 0 L 116.171875 0 Z M 116.171875 -102.765625 "/></g></g></g><g fill="#000000" fill-opacity="1"><g transform="translate(126.853107, 256.122785)"><g><path d="M 8.1875 0 L 8.1875 -5.890625 L 5.890625 -1.5 L 4.953125 -1.5 L 2.65625 -5.890625 L 2.65625 0 L 0.921875 0 L 0.921875 -8.90625 L 2.78125 -8.90625 L 5.421875 -3.84375 L 8.078125 -8.90625 L 9.921875 -8.90625 L 9.921875 0 Z M 8.1875 0 "/></g></g></g><g fill="#000000" fill-opacity="1"><g transform="translate(143.519147, 256.122785)"><g><path d="M 3.46875 -8.90625 L 5 -8.90625 L 8.375 0 L 6.59375 0 L 5.765625 -2.21875 L 2.65625 -2.21875 L 1.84375 0 L 0.0625 0 Z M 5.453125 -3.4375 L 4.234375 -6.9375 L 2.953125 -3.4375 Z M 5.453125 -3.4375 "/></g></g></g><g fill="#000000" fill-opacity="1"><g transform="translate(157.765128, 256.122785)"><g><path d="M 0.921875 0 L 0.921875 -8.90625 L 4.875 -8.90625 C 5.28125 -8.90625 5.65625 -8.816406 6 -8.640625 C 6.351562 -8.472656 6.65625 -8.25 6.90625 -7.96875 C 7.15625 -7.6875 7.347656 -7.367188 7.484375 -7.015625 C 7.628906 -6.660156 7.703125 -6.304688 7.703125 -5.953125 C 7.703125 -5.367188 7.554688 -4.835938 7.265625 -4.359375 C 6.984375 -3.890625 6.59375 -3.550781 6.09375 -3.34375 L 8.125 0 L 6.1875 0 L 4.359375 -2.984375 L 2.65625 -2.984375 L 2.65625 0 Z M 2.65625 -4.5 L 4.828125 -4.5 C 4.984375 -4.5 5.128906 -4.535156 5.265625 -4.609375 C 5.410156 -4.691406 5.53125 -4.796875 5.625 -4.921875 C 5.726562 -5.054688 5.804688 -5.207031 5.859375 -5.375 C 5.921875 -5.550781 5.953125 -5.742188 5.953125 -5.953125 C 5.953125 -6.160156 5.921875 -6.347656 5.859375 -6.515625 C 5.796875 -6.691406 5.707031 -6.84375 5.59375 -6.96875 C 5.476562 -7.101562 5.347656 -7.207031 5.203125 -7.28125 C 5.054688 -7.351562 4.90625 -7.390625 4.75 -7.390625 L 2.65625 -7.390625 Z M 2.65625 -4.5 "/></g></g></g><g fill="#000000" fill-opacity="1"><g transform="translate(171.923331, 256.122785)"><g><path d="M 0.921875 0 L 0.921875 -8.890625 L 2.65625 -8.890625 L 2.65625 -4.671875 L 6.40625 -8.90625 L 8.3125 -8.90625 L 4.890625 -4.953125 L 8.515625 0 L 6.578125 0 L 3.796875 -3.859375 L 2.65625 -2.65625 L 2.65625 0 Z M 0.921875 0 "/></g></g></g><g fill="#000000" fill-opacity="1"><g transform="translate(186.131696, 256.122785)"><g><path d="M 3.46875 -8.90625 L 5 -8.90625 L 8.375 0 L 6.59375 0 L 5.765625 -2.21875 L 2.65625 -2.21875 L 1.84375 0 L 0.0625 0 Z M 5.453125 -3.4375 L 4.234375 -6.9375 L 2.953125 -3.4375 Z M 5.453125 -3.4375 "/></g></g></g><g fill="#000000" fill-opacity="1"><g transform="translate(200.377679, 256.122785)"><g><path d="M 6.234375 -6.578125 C 6.171875 -6.628906 6.0625 -6.707031 5.90625 -6.8125 C 5.757812 -6.914062 5.570312 -7.015625 5.34375 -7.109375 C 5.125 -7.203125 4.882812 -7.28125 4.625 -7.34375 C 4.363281 -7.414062 4.101562 -7.453125 3.84375 -7.453125 C 3.363281 -7.453125 3.003906 -7.363281 2.765625 -7.1875 C 2.535156 -7.007812 2.421875 -6.765625 2.421875 -6.453125 C 2.421875 -6.265625 2.460938 -6.109375 2.546875 -5.984375 C 2.640625 -5.867188 2.769531 -5.765625 2.9375 -5.671875 C 3.101562 -5.578125 3.3125 -5.492188 3.5625 -5.421875 C 3.820312 -5.347656 4.117188 -5.269531 4.453125 -5.1875 C 4.890625 -5.0625 5.285156 -4.929688 5.640625 -4.796875 C 5.992188 -4.671875 6.289062 -4.503906 6.53125 -4.296875 C 6.78125 -4.097656 6.972656 -3.859375 7.109375 -3.578125 C 7.242188 -3.296875 7.3125 -2.953125 7.3125 -2.546875 C 7.3125 -2.066406 7.222656 -1.65625 7.046875 -1.3125 C 6.867188 -0.976562 6.625 -0.707031 6.3125 -0.5 C 6.007812 -0.289062 5.660156 -0.140625 5.265625 -0.046875 C 4.867188 0.046875 4.453125 0.09375 4.015625 0.09375 C 3.347656 0.09375 2.6875 -0.00390625 2.03125 -0.203125 C 1.375 -0.398438 0.789062 -0.679688 0.28125 -1.046875 L 1.046875 -2.546875 C 1.117188 -2.472656 1.253906 -2.375 1.453125 -2.25 C 1.648438 -2.125 1.878906 -2 2.140625 -1.875 C 2.410156 -1.757812 2.707031 -1.660156 3.03125 -1.578125 C 3.363281 -1.492188 3.703125 -1.453125 4.046875 -1.453125 C 4.992188 -1.453125 5.46875 -1.757812 5.46875 -2.375 C 5.46875 -2.5625 5.410156 -2.722656 5.296875 -2.859375 C 5.191406 -2.992188 5.039062 -3.109375 4.84375 -3.203125 C 4.644531 -3.304688 4.398438 -3.398438 4.109375 -3.484375 C 3.828125 -3.566406 3.507812 -3.660156 3.15625 -3.765625 C 2.726562 -3.878906 2.359375 -4.003906 2.046875 -4.140625 C 1.734375 -4.285156 1.472656 -4.453125 1.265625 -4.640625 C 1.054688 -4.828125 0.898438 -5.039062 0.796875 -5.28125 C 0.691406 -5.53125 0.640625 -5.828125 0.640625 -6.171875 C 0.640625 -6.617188 0.722656 -7.019531 0.890625 -7.375 C 1.054688 -7.726562 1.285156 -8.019531 1.578125 -8.25 C 1.878906 -8.488281 2.226562 -8.664062 2.625 -8.78125 C 3.019531 -8.90625 3.441406 -8.96875 3.890625 -8.96875 C 4.515625 -8.96875 5.085938 -8.867188 5.609375 -8.671875 C 6.140625 -8.472656 6.601562 -8.242188 7 -7.984375 Z M 6.234375 -6.578125 "/></g></g></g><g fill="#000000" fill-opacity="1"><g transform="translate(213.883846, 256.122785)"><g><path d="M 0.921875 0 L 0.921875 -8.90625 L 2.65625 -8.90625 L 2.65625 0 Z M 0.921875 0 "/></g></g></g><g fill="#000000" fill-opacity="1"><g transform="translate(223.289715, 256.122785)"><g><path d="M 4.734375 0.0625 C 4.078125 0.0625 3.484375 -0.0625 2.953125 -0.3125 C 2.421875 -0.570312 1.960938 -0.910156 1.578125 -1.328125 C 1.203125 -1.753906 0.910156 -2.238281 0.703125 -2.78125 C 0.492188 -3.320312 0.390625 -3.878906 0.390625 -4.453125 C 0.390625 -5.046875 0.5 -5.613281 0.71875 -6.15625 C 0.9375 -6.695312 1.238281 -7.175781 1.625 -7.59375 C 2.019531 -8.019531 2.484375 -8.351562 3.015625 -8.59375 C 3.554688 -8.84375 4.140625 -8.96875 4.765625 -8.96875 C 5.410156 -8.96875 6 -8.835938 6.53125 -8.578125 C 7.0625 -8.316406 7.515625 -7.972656 7.890625 -7.546875 C 8.265625 -7.117188 8.554688 -6.628906 8.765625 -6.078125 C 8.972656 -5.535156 9.078125 -4.984375 9.078125 -4.421875 C 9.078125 -3.828125 8.96875 -3.257812 8.75 -2.71875 C 8.539062 -2.1875 8.242188 -1.710938 7.859375 -1.296875 C 7.472656 -0.878906 7.007812 -0.546875 6.46875 -0.296875 C 5.9375 -0.0546875 5.359375 0.0625 4.734375 0.0625 Z M 2.140625 -4.453125 C 2.140625 -4.066406 2.195312 -3.691406 2.3125 -3.328125 C 2.4375 -2.972656 2.609375 -2.65625 2.828125 -2.375 C 3.046875 -2.101562 3.316406 -1.882812 3.640625 -1.71875 C 3.960938 -1.550781 4.332031 -1.46875 4.75 -1.46875 C 5.164062 -1.46875 5.535156 -1.550781 5.859375 -1.71875 C 6.179688 -1.894531 6.453125 -2.125 6.671875 -2.40625 C 6.890625 -2.6875 7.054688 -3.003906 7.171875 -3.359375 C 7.285156 -3.722656 7.34375 -4.085938 7.34375 -4.453125 C 7.34375 -4.835938 7.28125 -5.207031 7.15625 -5.5625 C 7.03125 -5.925781 6.859375 -6.242188 6.640625 -6.515625 C 6.421875 -6.796875 6.148438 -7.015625 5.828125 -7.171875 C 5.503906 -7.335938 5.144531 -7.421875 4.75 -7.421875 C 4.320312 -7.421875 3.945312 -7.332031 3.625 -7.15625 C 3.300781 -6.988281 3.03125 -6.765625 2.8125 -6.484375 C 2.59375 -6.210938 2.425781 -5.894531 2.3125 -5.53125 C 2.195312 -5.175781 2.140625 -4.816406 2.140625 -4.453125 Z M 2.140625 -4.453125 "/></g></g></g><g fill="#000000" fill-opacity="1"><g transform="translate(238.588989, 256.122785)"><g><path d="M 2.65625 -5.703125 L 2.65625 0 L 0.921875 0 L 0.921875 -8.90625 L 2.265625 -8.90625 L 6.90625 -3.0625 L 6.90625 -8.890625 L 8.640625 -8.890625 L 8.640625 0 L 7.234375 0 Z M 2.65625 -5.703125 "/></g></g></g></svg>